<?xml version="1.0" encoding="utf-8" standalone="no"?>
<!DOCTYPE svg PUBLIC "-//W3C//DTD SVG 1.1//EN"
  "http://www.w3.org/Graphics/SVG/1.1/DTD/svg11.dtd">
<svg xmlns:xlink="http://www.w3.org/1999/xlink" width="576pt" height="252pt" viewBox="0 0 576 252" xmlns="http://www.w3.org/2000/svg" version="1.1">
 <metadata>
  <rdf:RDF xmlns:dc="http://purl.org/dc/elements/1.1/" xmlns:cc="http://creativecommons.org/ns#" xmlns:rdf="http://www.w3.org/1999/02/22-rdf-syntax-ns#">
   <cc:Work>
    <dc:type rdf:resource="http://purl.org/dc/dcmitype/StillImage"/>
    <dc:date>2021-12-05T14:09:38.043795</dc:date>
    <dc:format>image/svg+xml</dc:format>
    <dc:creator>
     <cc:Agent>
      <dc:title>Matplotlib v3.5.0, https://matplotlib.org/</dc:title>
     </cc:Agent>
    </dc:creator>
   </cc:Work>
  </rdf:RDF>
 </metadata>
 <defs>
  <style type="text/css">*{stroke-linejoin: round; stroke-linecap: butt}</style>
 </defs>
 <g id="figure_1">
  <g id="patch_1">
   <path d="M 0 252
L 576 252
L 576 0
L 0 0
L 0 252
z
" style="fill: none"/>
  </g>
  <g id="axes_1">
   <g id="patch_2">
    <path d="M 63.3 204.4
L 290.475 204.4
L 290.475 30.4
L 63.3 30.4
z
" style="fill: #ffffff"/>
   </g>
   <g id="matplotlib.axis_1">
    <g id="xtick_1">
     <g id="line2d_1">
      <defs>
       <path id="mde30da7c9c" d="M 0 0
L 0 3.5
" style="stroke: #000000; stroke-width: 0.8"/>
      </defs>
      <g>
       <use xlink:href="#mde30da7c9c" x="260.148671" y="204.4" style="stroke: #000000; stroke-width: 0.8"/>
      </g>
     </g>
     <g id="text_1">
      <!-- 1 -->
      <g transform="translate(256.967421 218.998437)scale(0.1 -0.1)">
       <defs>
        <path id="DejaVuSans-31" d="M 794 531
L 1825 531
L 1825 4091
L 703 3866
L 703 4441
L 1819 4666
L 2450 4666
L 2450 531
L 3481 531
L 3481 0
L 794 0
L 794 531
z
" transform="scale(0.015625)"/>
       </defs>
       <use xlink:href="#DejaVuSans-31"/>
      </g>
     </g>
    </g>
    <g id="xtick_2">
     <g id="line2d_2">
      <g>
       <use xlink:href="#mde30da7c9c" x="199.530448" y="204.4" style="stroke: #000000; stroke-width: 0.8"/>
      </g>
     </g>
     <g id="text_2">
      <!-- 2 -->
      <g transform="translate(196.349198 218.998437)scale(0.1 -0.1)">
       <defs>
        <path id="DejaVuSans-32" d="M 1228 531
L 3431 531
L 3431 0
L 469 0
L 469 531
Q 828 903 1448 1529
Q 2069 2156 2228 2338
Q 2531 2678 2651 2914
Q 2772 3150 2772 3378
Q 2772 3750 2511 3984
Q 2250 4219 1831 4219
Q 1534 4219 1204 4116
Q 875 4013 500 3803
L 500 4441
Q 881 4594 1212 4672
Q 1544 4750 1819 4750
Q 2544 4750 2975 4387
Q 3406 4025 3406 3419
Q 3406 3131 3298 2873
Q 3191 2616 2906 2266
Q 2828 2175 2409 1742
Q 1991 1309 1228 531
z
" transform="scale(0.015625)"/>
       </defs>
       <use xlink:href="#DejaVuSans-32"/>
      </g>
     </g>
    </g>
    <g id="xtick_3">
     <g id="line2d_3">
      <g>
       <use xlink:href="#mde30da7c9c" x="138.912225" y="204.4" style="stroke: #000000; stroke-width: 0.8"/>
      </g>
     </g>
     <g id="text_3">
      <!-- 3 -->
      <g transform="translate(135.730975 218.998437)scale(0.1 -0.1)">
       <defs>
        <path id="DejaVuSans-33" d="M 2597 2516
Q 3050 2419 3304 2112
Q 3559 1806 3559 1356
Q 3559 666 3084 287
Q 2609 -91 1734 -91
Q 1441 -91 1130 -33
Q 819 25 488 141
L 488 750
Q 750 597 1062 519
Q 1375 441 1716 441
Q 2309 441 2620 675
Q 2931 909 2931 1356
Q 2931 1769 2642 2001
Q 2353 2234 1838 2234
L 1294 2234
L 1294 2753
L 1863 2753
Q 2328 2753 2575 2939
Q 2822 3125 2822 3475
Q 2822 3834 2567 4026
Q 2313 4219 1838 4219
Q 1578 4219 1281 4162
Q 984 4106 628 3988
L 628 4550
Q 988 4650 1302 4700
Q 1616 4750 1894 4750
Q 2613 4750 3031 4423
Q 3450 4097 3450 3541
Q 3450 3153 3228 2886
Q 3006 2619 2597 2516
z
" transform="scale(0.015625)"/>
       </defs>
       <use xlink:href="#DejaVuSans-33"/>
      </g>
     </g>
    </g>
    <g id="xtick_4">
     <g id="line2d_4">
      <g>
       <use xlink:href="#mde30da7c9c" x="78.294003" y="204.4" style="stroke: #000000; stroke-width: 0.8"/>
      </g>
     </g>
     <g id="text_4">
      <!-- 4 -->
      <g transform="translate(75.112753 218.998437)scale(0.1 -0.1)">
       <defs>
        <path id="DejaVuSans-34" d="M 2419 4116
L 825 1625
L 2419 1625
L 2419 4116
z
M 2253 4666
L 3047 4666
L 3047 1625
L 3713 1625
L 3713 1100
L 3047 1100
L 3047 0
L 2419 0
L 2419 1100
L 313 1100
L 313 1709
L 2253 4666
z
" transform="scale(0.015625)"/>
       </defs>
       <use xlink:href="#DejaVuSans-34"/>
      </g>
     </g>
    </g>
    <g id="text_5">
     <!-- $^{1}$H frequency / (ppm) -->
     <g transform="translate(123.9375 234.078125)scale(0.1 -0.1)">
      <defs>
       <path id="DejaVuSans-48" d="M 628 4666
L 1259 4666
L 1259 2753
L 3553 2753
L 3553 4666
L 4184 4666
L 4184 0
L 3553 0
L 3553 2222
L 1259 2222
L 1259 0
L 628 0
L 628 4666
z
" transform="scale(0.015625)"/>
       <path id="DejaVuSans-20" transform="scale(0.015625)"/>
       <path id="DejaVuSans-66" d="M 2375 4863
L 2375 4384
L 1825 4384
Q 1516 4384 1395 4259
Q 1275 4134 1275 3809
L 1275 3500
L 2222 3500
L 2222 3053
L 1275 3053
L 1275 0
L 697 0
L 697 3053
L 147 3053
L 147 3500
L 697 3500
L 697 3744
Q 697 4328 969 4595
Q 1241 4863 1831 4863
L 2375 4863
z
" transform="scale(0.015625)"/>
       <path id="DejaVuSans-72" d="M 2631 2963
Q 2534 3019 2420 3045
Q 2306 3072 2169 3072
Q 1681 3072 1420 2755
Q 1159 2438 1159 1844
L 1159 0
L 581 0
L 581 3500
L 1159 3500
L 1159 2956
Q 1341 3275 1631 3429
Q 1922 3584 2338 3584
Q 2397 3584 2469 3576
Q 2541 3569 2628 3553
L 2631 2963
z
" transform="scale(0.015625)"/>
       <path id="DejaVuSans-65" d="M 3597 1894
L 3597 1613
L 953 1613
Q 991 1019 1311 708
Q 1631 397 2203 397
Q 2534 397 2845 478
Q 3156 559 3463 722
L 3463 178
Q 3153 47 2828 -22
Q 2503 -91 2169 -91
Q 1331 -91 842 396
Q 353 884 353 1716
Q 353 2575 817 3079
Q 1281 3584 2069 3584
Q 2775 3584 3186 3129
Q 3597 2675 3597 1894
z
M 3022 2063
Q 3016 2534 2758 2815
Q 2500 3097 2075 3097
Q 1594 3097 1305 2825
Q 1016 2553 972 2059
L 3022 2063
z
" transform="scale(0.015625)"/>
       <path id="DejaVuSans-71" d="M 947 1747
Q 947 1113 1208 752
Q 1469 391 1925 391
Q 2381 391 2643 752
Q 2906 1113 2906 1747
Q 2906 2381 2643 2742
Q 2381 3103 1925 3103
Q 1469 3103 1208 2742
Q 947 2381 947 1747
z
M 2906 525
Q 2725 213 2448 61
Q 2172 -91 1784 -91
Q 1150 -91 751 415
Q 353 922 353 1747
Q 353 2572 751 3078
Q 1150 3584 1784 3584
Q 2172 3584 2448 3432
Q 2725 3281 2906 2969
L 2906 3500
L 3481 3500
L 3481 -1331
L 2906 -1331
L 2906 525
z
" transform="scale(0.015625)"/>
       <path id="DejaVuSans-75" d="M 544 1381
L 544 3500
L 1119 3500
L 1119 1403
Q 1119 906 1312 657
Q 1506 409 1894 409
Q 2359 409 2629 706
Q 2900 1003 2900 1516
L 2900 3500
L 3475 3500
L 3475 0
L 2900 0
L 2900 538
Q 2691 219 2414 64
Q 2138 -91 1772 -91
Q 1169 -91 856 284
Q 544 659 544 1381
z
M 1991 3584
L 1991 3584
z
" transform="scale(0.015625)"/>
       <path id="DejaVuSans-6e" d="M 3513 2113
L 3513 0
L 2938 0
L 2938 2094
Q 2938 2591 2744 2837
Q 2550 3084 2163 3084
Q 1697 3084 1428 2787
Q 1159 2491 1159 1978
L 1159 0
L 581 0
L 581 3500
L 1159 3500
L 1159 2956
Q 1366 3272 1645 3428
Q 1925 3584 2291 3584
Q 2894 3584 3203 3211
Q 3513 2838 3513 2113
z
" transform="scale(0.015625)"/>
       <path id="DejaVuSans-63" d="M 3122 3366
L 3122 2828
Q 2878 2963 2633 3030
Q 2388 3097 2138 3097
Q 1578 3097 1268 2742
Q 959 2388 959 1747
Q 959 1106 1268 751
Q 1578 397 2138 397
Q 2388 397 2633 464
Q 2878 531 3122 666
L 3122 134
Q 2881 22 2623 -34
Q 2366 -91 2075 -91
Q 1284 -91 818 406
Q 353 903 353 1747
Q 353 2603 823 3093
Q 1294 3584 2113 3584
Q 2378 3584 2631 3529
Q 2884 3475 3122 3366
z
" transform="scale(0.015625)"/>
       <path id="DejaVuSans-79" d="M 2059 -325
Q 1816 -950 1584 -1140
Q 1353 -1331 966 -1331
L 506 -1331
L 506 -850
L 844 -850
Q 1081 -850 1212 -737
Q 1344 -625 1503 -206
L 1606 56
L 191 3500
L 800 3500
L 1894 763
L 2988 3500
L 3597 3500
L 2059 -325
z
" transform="scale(0.015625)"/>
       <path id="DejaVuSans-2f" d="M 1625 4666
L 2156 4666
L 531 -594
L 0 -594
L 1625 4666
z
" transform="scale(0.015625)"/>
       <path id="DejaVuSans-28" d="M 1984 4856
Q 1566 4138 1362 3434
Q 1159 2731 1159 2009
Q 1159 1288 1364 580
Q 1569 -128 1984 -844
L 1484 -844
Q 1016 -109 783 600
Q 550 1309 550 2009
Q 550 2706 781 3412
Q 1013 4119 1484 4856
L 1984 4856
z
" transform="scale(0.015625)"/>
       <path id="DejaVuSans-70" d="M 1159 525
L 1159 -1331
L 581 -1331
L 581 3500
L 1159 3500
L 1159 2969
Q 1341 3281 1617 3432
Q 1894 3584 2278 3584
Q 2916 3584 3314 3078
Q 3713 2572 3713 1747
Q 3713 922 3314 415
Q 2916 -91 2278 -91
Q 1894 -91 1617 61
Q 1341 213 1159 525
z
M 3116 1747
Q 3116 2381 2855 2742
Q 2594 3103 2138 3103
Q 1681 3103 1420 2742
Q 1159 2381 1159 1747
Q 1159 1113 1420 752
Q 1681 391 2138 391
Q 2594 391 2855 752
Q 3116 1113 3116 1747
z
" transform="scale(0.015625)"/>
       <path id="DejaVuSans-6d" d="M 3328 2828
Q 3544 3216 3844 3400
Q 4144 3584 4550 3584
Q 5097 3584 5394 3201
Q 5691 2819 5691 2113
L 5691 0
L 5113 0
L 5113 2094
Q 5113 2597 4934 2840
Q 4756 3084 4391 3084
Q 3944 3084 3684 2787
Q 3425 2491 3425 1978
L 3425 0
L 2847 0
L 2847 2094
Q 2847 2600 2669 2842
Q 2491 3084 2119 3084
Q 1678 3084 1418 2786
Q 1159 2488 1159 1978
L 1159 0
L 581 0
L 581 3500
L 1159 3500
L 1159 2956
Q 1356 3278 1631 3431
Q 1906 3584 2284 3584
Q 2666 3584 2933 3390
Q 3200 3197 3328 2828
z
" transform="scale(0.015625)"/>
       <path id="DejaVuSans-29" d="M 513 4856
L 1013 4856
Q 1481 4119 1714 3412
Q 1947 2706 1947 2009
Q 1947 1309 1714 600
Q 1481 -109 1013 -844
L 513 -844
Q 928 -128 1133 580
Q 1338 1288 1338 2009
Q 1338 2731 1133 3434
Q 928 4138 513 4856
z
" transform="scale(0.015625)"/>
      </defs>
      <use xlink:href="#DejaVuSans-31" transform="translate(0.957031 38.965625)scale(0.7)"/>
      <use xlink:href="#DejaVuSans-48" transform="translate(48.227539 0.684375)"/>
      <use xlink:href="#DejaVuSans-20" transform="translate(123.422852 0.684375)"/>
      <use xlink:href="#DejaVuSans-66" transform="translate(155.209961 0.684375)"/>
      <use xlink:href="#DejaVuSans-72" transform="translate(190.415039 0.684375)"/>
      <use xlink:href="#DejaVuSans-65" transform="translate(231.52832 0.684375)"/>
      <use xlink:href="#DejaVuSans-71" transform="translate(293.051758 0.684375)"/>
      <use xlink:href="#DejaVuSans-75" transform="translate(356.52832 0.684375)"/>
      <use xlink:href="#DejaVuSans-65" transform="translate(419.907227 0.684375)"/>
      <use xlink:href="#DejaVuSans-6e" transform="translate(481.430664 0.684375)"/>
      <use xlink:href="#DejaVuSans-63" transform="translate(544.80957 0.684375)"/>
      <use xlink:href="#DejaVuSans-79" transform="translate(599.790039 0.684375)"/>
      <use xlink:href="#DejaVuSans-20" transform="translate(658.969727 0.684375)"/>
      <use xlink:href="#DejaVuSans-2f" transform="translate(690.756836 0.684375)"/>
      <use xlink:href="#DejaVuSans-20" transform="translate(724.448242 0.684375)"/>
      <use xlink:href="#DejaVuSans-28" transform="translate(756.235352 0.684375)"/>
      <use xlink:href="#DejaVuSans-70" transform="translate(795.249023 0.684375)"/>
      <use xlink:href="#DejaVuSans-70" transform="translate(858.725586 0.684375)"/>
      <use xlink:href="#DejaVuSans-6d" transform="translate(922.202148 0.684375)"/>
      <use xlink:href="#DejaVuSans-29" transform="translate(1019.614258 0.684375)"/>
     </g>
    </g>
   </g>
   <g id="matplotlib.axis_2">
    <g id="ytick_1">
     <g id="line2d_5">
      <defs>
       <path id="mae915c4e11" d="M 0 0
L -3.5 0
" style="stroke: #000000; stroke-width: 0.8"/>
      </defs>
      <g>
       <use xlink:href="#mae915c4e11" x="63.3" y="196.492827" style="stroke: #000000; stroke-width: 0.8"/>
      </g>
     </g>
     <g id="text_6">
      <!-- 0 -->
      <g transform="translate(49.9375 200.292046)scale(0.1 -0.1)">
       <defs>
        <path id="DejaVuSans-30" d="M 2034 4250
Q 1547 4250 1301 3770
Q 1056 3291 1056 2328
Q 1056 1369 1301 889
Q 1547 409 2034 409
Q 2525 409 2770 889
Q 3016 1369 3016 2328
Q 3016 3291 2770 3770
Q 2525 4250 2034 4250
z
M 2034 4750
Q 2819 4750 3233 4129
Q 3647 3509 3647 2328
Q 3647 1150 3233 529
Q 2819 -91 2034 -91
Q 1250 -91 836 529
Q 422 1150 422 2328
Q 422 3509 836 4129
Q 1250 4750 2034 4750
z
" transform="scale(0.015625)"/>
       </defs>
       <use xlink:href="#DejaVuSans-30"/>
      </g>
     </g>
    </g>
    <g id="ytick_2">
     <g id="line2d_6">
      <g>
       <use xlink:href="#mae915c4e11" x="63.3" y="168.773506" style="stroke: #000000; stroke-width: 0.8"/>
      </g>
     </g>
     <g id="text_7">
      <!-- 5000 -->
      <g transform="translate(30.85 172.572724)scale(0.1 -0.1)">
       <defs>
        <path id="DejaVuSans-35" d="M 691 4666
L 3169 4666
L 3169 4134
L 1269 4134
L 1269 2991
Q 1406 3038 1543 3061
Q 1681 3084 1819 3084
Q 2600 3084 3056 2656
Q 3513 2228 3513 1497
Q 3513 744 3044 326
Q 2575 -91 1722 -91
Q 1428 -91 1123 -41
Q 819 9 494 109
L 494 744
Q 775 591 1075 516
Q 1375 441 1709 441
Q 2250 441 2565 725
Q 2881 1009 2881 1497
Q 2881 1984 2565 2268
Q 2250 2553 1709 2553
Q 1456 2553 1204 2497
Q 953 2441 691 2322
L 691 4666
z
" transform="scale(0.015625)"/>
       </defs>
       <use xlink:href="#DejaVuSans-35"/>
       <use xlink:href="#DejaVuSans-30" x="63.623047"/>
       <use xlink:href="#DejaVuSans-30" x="127.246094"/>
       <use xlink:href="#DejaVuSans-30" x="190.869141"/>
      </g>
     </g>
    </g>
    <g id="ytick_3">
     <g id="line2d_7">
      <g>
       <use xlink:href="#mae915c4e11" x="63.3" y="141.054184" style="stroke: #000000; stroke-width: 0.8"/>
      </g>
     </g>
     <g id="text_8">
      <!-- 10000 -->
      <g transform="translate(24.4875 144.853403)scale(0.1 -0.1)">
       <use xlink:href="#DejaVuSans-31"/>
       <use xlink:href="#DejaVuSans-30" x="63.623047"/>
       <use xlink:href="#DejaVuSans-30" x="127.246094"/>
       <use xlink:href="#DejaVuSans-30" x="190.869141"/>
       <use xlink:href="#DejaVuSans-30" x="254.492188"/>
      </g>
     </g>
    </g>
    <g id="ytick_4">
     <g id="line2d_8">
      <g>
       <use xlink:href="#mae915c4e11" x="63.3" y="113.334863" style="stroke: #000000; stroke-width: 0.8"/>
      </g>
     </g>
     <g id="text_9">
      <!-- 15000 -->
      <g transform="translate(24.4875 117.134081)scale(0.1 -0.1)">
       <use xlink:href="#DejaVuSans-31"/>
       <use xlink:href="#DejaVuSans-35" x="63.623047"/>
       <use xlink:href="#DejaVuSans-30" x="127.246094"/>
       <use xlink:href="#DejaVuSans-30" x="190.869141"/>
       <use xlink:href="#DejaVuSans-30" x="254.492188"/>
      </g>
     </g>
    </g>
    <g id="ytick_5">
     <g id="line2d_9">
      <g>
       <use xlink:href="#mae915c4e11" x="63.3" y="85.615541" style="stroke: #000000; stroke-width: 0.8"/>
      </g>
     </g>
     <g id="text_10">
      <!-- 20000 -->
      <g transform="translate(24.4875 89.41476)scale(0.1 -0.1)">
       <use xlink:href="#DejaVuSans-32"/>
       <use xlink:href="#DejaVuSans-30" x="63.623047"/>
       <use xlink:href="#DejaVuSans-30" x="127.246094"/>
       <use xlink:href="#DejaVuSans-30" x="190.869141"/>
       <use xlink:href="#DejaVuSans-30" x="254.492188"/>
      </g>
     </g>
    </g>
    <g id="ytick_6">
     <g id="line2d_10">
      <g>
       <use xlink:href="#mae915c4e11" x="63.3" y="57.89622" style="stroke: #000000; stroke-width: 0.8"/>
      </g>
     </g>
     <g id="text_11">
      <!-- 25000 -->
      <g transform="translate(24.4875 61.695438)scale(0.1 -0.1)">
       <use xlink:href="#DejaVuSans-32"/>
       <use xlink:href="#DejaVuSans-35" x="63.623047"/>
       <use xlink:href="#DejaVuSans-30" x="127.246094"/>
       <use xlink:href="#DejaVuSans-30" x="190.869141"/>
       <use xlink:href="#DejaVuSans-30" x="254.492188"/>
      </g>
     </g>
    </g>
    <g id="text_12">
     <!-- dimensionless -->
     <g transform="translate(18.407813 152.975781)rotate(-90)scale(0.1 -0.1)">
      <defs>
       <path id="DejaVuSans-64" d="M 2906 2969
L 2906 4863
L 3481 4863
L 3481 0
L 2906 0
L 2906 525
Q 2725 213 2448 61
Q 2172 -91 1784 -91
Q 1150 -91 751 415
Q 353 922 353 1747
Q 353 2572 751 3078
Q 1150 3584 1784 3584
Q 2172 3584 2448 3432
Q 2725 3281 2906 2969
z
M 947 1747
Q 947 1113 1208 752
Q 1469 391 1925 391
Q 2381 391 2643 752
Q 2906 1113 2906 1747
Q 2906 2381 2643 2742
Q 2381 3103 1925 3103
Q 1469 3103 1208 2742
Q 947 2381 947 1747
z
" transform="scale(0.015625)"/>
       <path id="DejaVuSans-69" d="M 603 3500
L 1178 3500
L 1178 0
L 603 0
L 603 3500
z
M 603 4863
L 1178 4863
L 1178 4134
L 603 4134
L 603 4863
z
" transform="scale(0.015625)"/>
       <path id="DejaVuSans-73" d="M 2834 3397
L 2834 2853
Q 2591 2978 2328 3040
Q 2066 3103 1784 3103
Q 1356 3103 1142 2972
Q 928 2841 928 2578
Q 928 2378 1081 2264
Q 1234 2150 1697 2047
L 1894 2003
Q 2506 1872 2764 1633
Q 3022 1394 3022 966
Q 3022 478 2636 193
Q 2250 -91 1575 -91
Q 1294 -91 989 -36
Q 684 19 347 128
L 347 722
Q 666 556 975 473
Q 1284 391 1588 391
Q 1994 391 2212 530
Q 2431 669 2431 922
Q 2431 1156 2273 1281
Q 2116 1406 1581 1522
L 1381 1569
Q 847 1681 609 1914
Q 372 2147 372 2553
Q 372 3047 722 3315
Q 1072 3584 1716 3584
Q 2034 3584 2315 3537
Q 2597 3491 2834 3397
z
" transform="scale(0.015625)"/>
       <path id="DejaVuSans-6f" d="M 1959 3097
Q 1497 3097 1228 2736
Q 959 2375 959 1747
Q 959 1119 1226 758
Q 1494 397 1959 397
Q 2419 397 2687 759
Q 2956 1122 2956 1747
Q 2956 2369 2687 2733
Q 2419 3097 1959 3097
z
M 1959 3584
Q 2709 3584 3137 3096
Q 3566 2609 3566 1747
Q 3566 888 3137 398
Q 2709 -91 1959 -91
Q 1206 -91 779 398
Q 353 888 353 1747
Q 353 2609 779 3096
Q 1206 3584 1959 3584
z
" transform="scale(0.015625)"/>
       <path id="DejaVuSans-6c" d="M 603 4863
L 1178 4863
L 1178 0
L 603 0
L 603 4863
z
" transform="scale(0.015625)"/>
      </defs>
      <use xlink:href="#DejaVuSans-64"/>
      <use xlink:href="#DejaVuSans-69" x="63.476562"/>
      <use xlink:href="#DejaVuSans-6d" x="91.259766"/>
      <use xlink:href="#DejaVuSans-65" x="188.671875"/>
      <use xlink:href="#DejaVuSans-6e" x="250.195312"/>
      <use xlink:href="#DejaVuSans-73" x="313.574219"/>
      <use xlink:href="#DejaVuSans-69" x="365.673828"/>
      <use xlink:href="#DejaVuSans-6f" x="393.457031"/>
      <use xlink:href="#DejaVuSans-6e" x="454.638672"/>
      <use xlink:href="#DejaVuSans-6c" x="518.017578"/>
      <use xlink:href="#DejaVuSans-65" x="545.800781"/>
      <use xlink:href="#DejaVuSans-73" x="607.324219"/>
      <use xlink:href="#DejaVuSans-73" x="659.423828"/>
     </g>
    </g>
   </g>
   <g id="line2d_11">
    <path d="M 290.475 196.4909
L 257.205982 196.384741
L 257.078188 196.161529
L 256.978792 195.604606
L 256.921995 195.882317
L 256.737404 196.37854
L 256.425019 196.417862
L 256.141032 196.286863
L 256.027438 195.919972
L 255.913843 194.730488
L 255.857046 195.365799
L 255.686654 196.287973
L 255.459465 196.406884
L 255.076083 196.360379
L 254.962488 196.16556
L 254.848894 195.599597
L 254.792096 195.939328
L 254.621704 196.374152
L 254.29512 196.441526
L 252.250417 196.433222
L 249.609343 196.270731
L 248.82838 196.029479
L 248.444998 195.694328
L 248.18941 195.155259
L 247.99062 194.114153
L 247.834427 191.838633
L 247.706633 185.603783
L 247.607238 165.927992
L 247.507843 115.988247
L 247.451045 145.096624
L 247.280653 187.138204
L 247.096062 191.581465
L 247.039265 191.718006
L 246.996667 191.614704
L 246.897272 190.658603
L 246.769478 186.983115
L 246.655883 176.7107
L 246.556488 142.602048
L 246.442893 38.309091
L 246.400295 82.33527
L 246.215704 180.281167
L 246.016914 190.378512
L 245.846522 191.715724
L 245.832322 191.6957
L 245.761326 191.262202
L 245.647731 188.658981
L 245.548336 180.572514
L 245.448941 146.566476
L 245.392143 116.448929
L 245.335346 142.172249
L 245.150755 188.50741
L 244.951964 193.681882
L 244.710576 195.147226
L 244.41239 195.746081
L 244.014809 196.05805
L 243.36164 196.257776
L 242.041103 196.388087
L 238.718461 196.445946
L 238.221484 196.324419
L 238.122089 196.040468
L 238.036893 195.599446
L 237.994295 195.838469
L 237.809704 196.368152
L 237.511518 196.414604
L 237.213332 196.291005
L 237.099737 195.948222
L 236.986143 194.740567
L 236.929346 195.298689
L 236.744754 196.301959
L 236.503366 196.414414
L 236.134183 196.361124
L 236.020589 196.139004
L 235.921194 195.599474
L 235.864396 195.918404
L 235.679805 196.392242
L 235.339021 196.458396
L 232.896737 196.4808
L 179.691867 196.487492
L 174.935093 196.390459
L 174.807299 196.198106
L 174.750502 196.322517
L 174.56591 196.450782
L 174.026336 196.411388
L 173.884343 196.238023
L 173.756549 195.616591
L 173.699752 195.948629
L 173.52936 196.389021
L 173.216974 196.444953
L 172.876191 196.335707
L 172.776795 196.03921
L 172.705799 195.615725
L 172.649002 195.880995
L 172.46441 196.392602
L 172.137826 196.454279
L 171.740245 196.36447
L 171.62665 196.191348
L 171.584052 196.285378
L 171.399461 196.445973
L 170.661096 196.469222
L 166.003717 196.359285
L 165.10916 196.161058
L 164.768376 195.874996
L 164.569586 195.389143
L 164.427592 194.385033
L 164.313998 191.714806
L 164.214602 181.922852
L 164.143606 169.387872
L 164.101008 175.651144
L 163.916417 193.025415
L 163.731825 194.370678
L 163.660829 194.312454
L 163.547234 193.779447
L 163.405241 191.766939
L 163.291646 186.655349
L 163.192251 169.926977
L 163.078656 116.947782
L 163.021859 147.471725
L 162.851467 187.973523
L 162.652677 192.83404
L 162.553281 193.177709
L 162.510683 193.118687
L 162.411288 192.442035
L 162.297694 189.98635
L 162.184099 181.319124
L 162.084704 147.864735
L 162.027906 117.07142
L 161.971109 141.46279
L 161.786518 188.523407
L 161.587727 193.531502
L 161.388937 194.375381
L 161.31794 194.259161
L 161.218545 193.498783
L 161.11915 190.75204
L 161.019754 178.956145
L 160.962957 169.38731
L 160.920359 175.724548
L 160.735768 193.452637
L 160.536977 195.386511
L 160.281389 195.94797
L 159.926406 196.192013
L 159.244839 196.34352
L 157.54092 196.43742
L 153.636105 196.424242
L 153.508311 196.25228
L 153.465713 196.181904
L 153.408916 196.284716
L 153.224325 196.442666
L 152.69895 196.419199
L 152.542757 196.271182
L 152.429163 195.68831
L 152.400764 195.614396
L 152.358166 195.846047
L 152.173575 196.387787
L 151.86119 196.445029
L 151.520406 196.337215
L 151.421011 196.041138
L 151.350014 195.617955
L 151.293217 195.883467
L 151.108626 196.395868
L 150.782041 196.458982
L 150.38446 196.371004
L 150.285065 196.188894
L 150.228267 196.292663
L 150.043676 196.454174
L 149.305311 196.481486
L 129.369459 196.490595
L 99.636073 196.380946
L 98.684718 196.182579
L 98.287137 195.896023
L 98.031549 195.435474
L 97.832758 194.577821
L 97.662366 192.642626
L 97.534572 188.42199
L 97.420978 175.275252
L 97.321583 124.899098
L 97.264785 88.333698
L 97.222187 115.904375
L 97.037596 185.793524
L 96.838806 193.192561
L 96.597417 195.118376
L 96.313431 195.810391
L 95.944248 196.136693
L 95.362076 196.320366
L 94.126734 196.428743
L 90.065728 196.479908
L 63.3 196.4909
L 63.3 196.4909
" clip-path="url(#p7fa504c732)" style="fill: none; stroke: #000000; stroke-width: 0.5; stroke-linecap: square"/>
   </g>
   <g id="patch_3">
    <path d="M 63.3 204.4
L 63.3 30.4
" style="fill: none; stroke: #000000; stroke-width: 0.8; stroke-linejoin: miter; stroke-linecap: square"/>
   </g>
   <g id="patch_4">
    <path d="M 290.475 204.4
L 290.475 30.4
" style="fill: none; stroke: #000000; stroke-width: 0.8; stroke-linejoin: miter; stroke-linecap: square"/>
   </g>
   <g id="patch_5">
    <path d="M 63.3 204.4
L 290.475 204.4
" style="fill: none; stroke: #000000; stroke-width: 0.8; stroke-linejoin: miter; stroke-linecap: square"/>
   </g>
   <g id="patch_6">
    <path d="M 63.3 30.4
L 290.475 30.4
" style="fill: none; stroke: #000000; stroke-width: 0.8; stroke-linejoin: miter; stroke-linecap: square"/>
   </g>
   <g id="text_13">
    <!-- $^1$H -->
    <g transform="translate(169.4475 24.4)scale(0.12 -0.12)">
     <use xlink:href="#DejaVuSans-31" transform="translate(0.957031 38.965625)scale(0.7)"/>
     <use xlink:href="#DejaVuSans-48" transform="translate(48.227539 0.684375)"/>
    </g>
   </g>
  </g>
  <g id="axes_2">
   <g id="patch_7">
    <path d="M 334.9 204.4
L 562.075 204.4
L 562.075 30.4
L 334.9 30.4
z
" style="fill: #ffffff"/>
   </g>
   <g id="matplotlib.axis_3">
    <g id="xtick_5">
     <g id="line2d_12">
      <g>
       <use xlink:href="#mde30da7c9c" x="562.075" y="204.4" style="stroke: #000000; stroke-width: 0.8"/>
      </g>
     </g>
     <g id="text_14">
      <!-- 0 -->
      <g transform="translate(558.89375 218.998437)scale(0.1 -0.1)">
       <use xlink:href="#DejaVuSans-30"/>
      </g>
     </g>
    </g>
    <g id="xtick_6">
     <g id="line2d_13">
      <g>
       <use xlink:href="#mde30da7c9c" x="504.907487" y="204.4" style="stroke: #000000; stroke-width: 0.8"/>
      </g>
     </g>
     <g id="text_15">
      <!-- 20 -->
      <g transform="translate(498.544987 218.998437)scale(0.1 -0.1)">
       <use xlink:href="#DejaVuSans-32"/>
       <use xlink:href="#DejaVuSans-30" x="63.623047"/>
      </g>
     </g>
    </g>
    <g id="xtick_7">
     <g id="line2d_14">
      <g>
       <use xlink:href="#mde30da7c9c" x="447.739974" y="204.4" style="stroke: #000000; stroke-width: 0.8"/>
      </g>
     </g>
     <g id="text_16">
      <!-- 40 -->
      <g transform="translate(441.377474 218.998437)scale(0.1 -0.1)">
       <use xlink:href="#DejaVuSans-34"/>
       <use xlink:href="#DejaVuSans-30" x="63.623047"/>
      </g>
     </g>
    </g>
    <g id="xtick_8">
     <g id="line2d_15">
      <g>
       <use xlink:href="#mde30da7c9c" x="390.572462" y="204.4" style="stroke: #000000; stroke-width: 0.8"/>
      </g>
     </g>
     <g id="text_17">
      <!-- 60 -->
      <g transform="translate(384.209962 218.998437)scale(0.1 -0.1)">
       <defs>
        <path id="DejaVuSans-36" d="M 2113 2584
Q 1688 2584 1439 2293
Q 1191 2003 1191 1497
Q 1191 994 1439 701
Q 1688 409 2113 409
Q 2538 409 2786 701
Q 3034 994 3034 1497
Q 3034 2003 2786 2293
Q 2538 2584 2113 2584
z
M 3366 4563
L 3366 3988
Q 3128 4100 2886 4159
Q 2644 4219 2406 4219
Q 1781 4219 1451 3797
Q 1122 3375 1075 2522
Q 1259 2794 1537 2939
Q 1816 3084 2150 3084
Q 2853 3084 3261 2657
Q 3669 2231 3669 1497
Q 3669 778 3244 343
Q 2819 -91 2113 -91
Q 1303 -91 875 529
Q 447 1150 447 2328
Q 447 3434 972 4092
Q 1497 4750 2381 4750
Q 2619 4750 2861 4703
Q 3103 4656 3366 4563
z
" transform="scale(0.015625)"/>
       </defs>
       <use xlink:href="#DejaVuSans-36"/>
       <use xlink:href="#DejaVuSans-30" x="63.623047"/>
      </g>
     </g>
    </g>
    <g id="text_18">
     <!-- $^{13}$C frequency / (ppm) -->
     <g transform="translate(393.5875 234.178125)scale(0.1 -0.1)">
      <defs>
       <path id="DejaVuSans-43" d="M 4122 4306
L 4122 3641
Q 3803 3938 3442 4084
Q 3081 4231 2675 4231
Q 1875 4231 1450 3742
Q 1025 3253 1025 2328
Q 1025 1406 1450 917
Q 1875 428 2675 428
Q 3081 428 3442 575
Q 3803 722 4122 1019
L 4122 359
Q 3791 134 3420 21
Q 3050 -91 2638 -91
Q 1578 -91 968 557
Q 359 1206 359 2328
Q 359 3453 968 4101
Q 1578 4750 2638 4750
Q 3056 4750 3426 4639
Q 3797 4528 4122 4306
z
" transform="scale(0.015625)"/>
      </defs>
      <use xlink:href="#DejaVuSans-31" transform="translate(0.957031 39.046875)scale(0.7)"/>
      <use xlink:href="#DejaVuSans-33" transform="translate(45.493164 39.046875)scale(0.7)"/>
      <use xlink:href="#DejaVuSans-43" transform="translate(92.763672 0.765625)"/>
      <use xlink:href="#DejaVuSans-20" transform="translate(162.587891 0.765625)"/>
      <use xlink:href="#DejaVuSans-66" transform="translate(194.375 0.765625)"/>
      <use xlink:href="#DejaVuSans-72" transform="translate(229.580078 0.765625)"/>
      <use xlink:href="#DejaVuSans-65" transform="translate(270.693359 0.765625)"/>
      <use xlink:href="#DejaVuSans-71" transform="translate(332.216797 0.765625)"/>
      <use xlink:href="#DejaVuSans-75" transform="translate(395.693359 0.765625)"/>
      <use xlink:href="#DejaVuSans-65" transform="translate(459.072266 0.765625)"/>
      <use xlink:href="#DejaVuSans-6e" transform="translate(520.595703 0.765625)"/>
      <use xlink:href="#DejaVuSans-63" transform="translate(583.974609 0.765625)"/>
      <use xlink:href="#DejaVuSans-79" transform="translate(638.955078 0.765625)"/>
      <use xlink:href="#DejaVuSans-20" transform="translate(698.134766 0.765625)"/>
      <use xlink:href="#DejaVuSans-2f" transform="translate(729.921875 0.765625)"/>
      <use xlink:href="#DejaVuSans-20" transform="translate(763.613281 0.765625)"/>
      <use xlink:href="#DejaVuSans-28" transform="translate(795.400391 0.765625)"/>
      <use xlink:href="#DejaVuSans-70" transform="translate(834.414062 0.765625)"/>
      <use xlink:href="#DejaVuSans-70" transform="translate(897.890625 0.765625)"/>
      <use xlink:href="#DejaVuSans-6d" transform="translate(961.367188 0.765625)"/>
      <use xlink:href="#DejaVuSans-29" transform="translate(1058.779297 0.765625)"/>
     </g>
    </g>
   </g>
   <g id="matplotlib.axis_4">
    <g id="ytick_7">
     <g id="line2d_16">
      <g>
       <use xlink:href="#mae915c4e11" x="334.9" y="196.510258" style="stroke: #000000; stroke-width: 0.8"/>
      </g>
     </g>
     <g id="text_19">
      <!-- 0 -->
      <g transform="translate(321.5375 200.309477)scale(0.1 -0.1)">
       <use xlink:href="#DejaVuSans-30"/>
      </g>
     </g>
    </g>
    <g id="ytick_8">
     <g id="line2d_17">
      <g>
       <use xlink:href="#mae915c4e11" x="334.9" y="166.362369" style="stroke: #000000; stroke-width: 0.8"/>
      </g>
     </g>
     <g id="text_20">
      <!-- 2 -->
      <g transform="translate(321.5375 170.161588)scale(0.1 -0.1)">
       <use xlink:href="#DejaVuSans-32"/>
      </g>
     </g>
    </g>
    <g id="ytick_9">
     <g id="line2d_18">
      <g>
       <use xlink:href="#mae915c4e11" x="334.9" y="136.21448" style="stroke: #000000; stroke-width: 0.8"/>
      </g>
     </g>
     <g id="text_21">
      <!-- 4 -->
      <g transform="translate(321.5375 140.013699)scale(0.1 -0.1)">
       <use xlink:href="#DejaVuSans-34"/>
      </g>
     </g>
    </g>
    <g id="ytick_10">
     <g id="line2d_19">
      <g>
       <use xlink:href="#mae915c4e11" x="334.9" y="106.066591" style="stroke: #000000; stroke-width: 0.8"/>
      </g>
     </g>
     <g id="text_22">
      <!-- 6 -->
      <g transform="translate(321.5375 109.86581)scale(0.1 -0.1)">
       <use xlink:href="#DejaVuSans-36"/>
      </g>
     </g>
    </g>
    <g id="ytick_11">
     <g id="line2d_20">
      <g>
       <use xlink:href="#mae915c4e11" x="334.9" y="75.918702" style="stroke: #000000; stroke-width: 0.8"/>
      </g>
     </g>
     <g id="text_23">
      <!-- 8 -->
      <g transform="translate(321.5375 79.717921)scale(0.1 -0.1)">
       <defs>
        <path id="DejaVuSans-38" d="M 2034 2216
Q 1584 2216 1326 1975
Q 1069 1734 1069 1313
Q 1069 891 1326 650
Q 1584 409 2034 409
Q 2484 409 2743 651
Q 3003 894 3003 1313
Q 3003 1734 2745 1975
Q 2488 2216 2034 2216
z
M 1403 2484
Q 997 2584 770 2862
Q 544 3141 544 3541
Q 544 4100 942 4425
Q 1341 4750 2034 4750
Q 2731 4750 3128 4425
Q 3525 4100 3525 3541
Q 3525 3141 3298 2862
Q 3072 2584 2669 2484
Q 3125 2378 3379 2068
Q 3634 1759 3634 1313
Q 3634 634 3220 271
Q 2806 -91 2034 -91
Q 1263 -91 848 271
Q 434 634 434 1313
Q 434 1759 690 2068
Q 947 2378 1403 2484
z
M 1172 3481
Q 1172 3119 1398 2916
Q 1625 2713 2034 2713
Q 2441 2713 2670 2916
Q 2900 3119 2900 3481
Q 2900 3844 2670 4047
Q 2441 4250 2034 4250
Q 1625 4250 1398 4047
Q 1172 3844 1172 3481
z
" transform="scale(0.015625)"/>
       </defs>
       <use xlink:href="#DejaVuSans-38"/>
      </g>
     </g>
    </g>
    <g id="ytick_12">
     <g id="line2d_21">
      <g>
       <use xlink:href="#mae915c4e11" x="334.9" y="45.770813" style="stroke: #000000; stroke-width: 0.8"/>
      </g>
     </g>
     <g id="text_24">
      <!-- 10 -->
      <g transform="translate(315.175 49.570032)scale(0.1 -0.1)">
       <use xlink:href="#DejaVuSans-31"/>
       <use xlink:href="#DejaVuSans-30" x="63.623047"/>
      </g>
     </g>
    </g>
    <g id="text_25">
     <!-- dimensionless -->
     <g transform="translate(309.095312 152.975781)rotate(-90)scale(0.1 -0.1)">
      <use xlink:href="#DejaVuSans-64"/>
      <use xlink:href="#DejaVuSans-69" x="63.476562"/>
      <use xlink:href="#DejaVuSans-6d" x="91.259766"/>
      <use xlink:href="#DejaVuSans-65" x="188.671875"/>
      <use xlink:href="#DejaVuSans-6e" x="250.195312"/>
      <use xlink:href="#DejaVuSans-73" x="313.574219"/>
      <use xlink:href="#DejaVuSans-69" x="365.673828"/>
      <use xlink:href="#DejaVuSans-6f" x="393.457031"/>
      <use xlink:href="#DejaVuSans-6e" x="454.638672"/>
      <use xlink:href="#DejaVuSans-6c" x="518.017578"/>
      <use xlink:href="#DejaVuSans-65" x="545.800781"/>
      <use xlink:href="#DejaVuSans-73" x="607.324219"/>
      <use xlink:href="#DejaVuSans-73" x="659.423828"/>
     </g>
    </g>
   </g>
   <g id="line2d_22">
    <path d="M 562.075 196.490104
L 525.598074 196.37325
L 520.940841 196.168497
L 519.194379 195.894061
L 518.314048 195.549219
L 517.774491 195.10798
L 517.384021 194.491213
L 517.071646 193.548175
L 516.808967 191.991028
L 516.574685 189.093473
L 516.368801 183.442804
L 516.162918 170.711703
L 515.942835 156.193426
L 515.900238 157.19335
L 515.75115 168.744815
L 515.445874 185.666023
L 515.168996 190.37777
L 514.877919 192.086144
L 514.61524 192.565702
L 514.423555 192.564557
L 514.217671 192.296833
L 513.962091 191.545797
L 513.685213 189.970418
L 513.415434 186.993619
L 513.174053 181.624941
L 512.95397 171.171881
L 512.755186 149.936752
L 512.513805 94.483488
L 512.400214 77.409517
L 512.350518 80.464454
L 512.19433 117.158262
L 511.896154 166.503506
L 511.612176 181.356596
L 511.3069 187.213485
L 510.987425 189.629727
L 510.710547 190.344823
L 510.540161 190.350587
L 510.376873 190.057177
L 510.16389 189.147866
L 509.922509 187.034706
L 509.681128 182.709604
L 509.461046 174.329804
L 509.255162 156.719459
L 509.042179 115.096422
L 508.850494 77.407639
L 508.800798 80.492195
L 508.64461 117.279792
L 508.346433 166.813419
L 508.062456 181.870326
L 507.75008 188.084781
L 507.409307 190.948281
L 507.061435 192.224143
L 506.777457 192.586331
L 506.592872 192.536581
L 506.408286 192.210057
L 506.195303 191.304808
L 505.98232 189.315971
L 505.776436 185.013879
L 505.577652 175.43224
L 505.300773 156.191117
L 505.229779 158.341944
L 504.612128 190.028668
L 504.306852 192.887218
L 503.958979 194.25615
L 503.554311 195.005273
L 503.050251 195.474635
L 502.354506 195.803781
L 501.254092 196.054316
L 499.287547 196.245099
L 495.19117 196.381957
L 484.442617 196.464416
L 439.914925 196.487917
L 410.572937 196.362542
L 406.10029 196.151525
L 404.282833 195.866118
L 403.30311 195.502911
L 402.678359 195.041106
L 402.223995 194.425143
L 401.854824 193.527449
L 401.542449 192.142867
L 401.265571 189.80532
L 401.02419 185.694406
L 400.804107 177.575834
L 400.605323 160.889116
L 400.285848 116.913291
L 400.200655 123.493432
L 399.696594 180.506506
L 399.405517 187.682569
L 399.093142 190.559545
L 398.787866 191.629709
L 398.539386 191.862934
L 398.3548 191.76555
L 398.134717 191.35613
L 397.864939 190.321153
L 397.580961 188.233919
L 397.311182 184.393668
L 397.069801 177.491414
L 396.849719 164.106312
L 396.643835 135.562765
L 396.402454 62.091204
L 396.281763 38.309091
L 396.239167 41.908073
L 396.097178 85.352869
L 395.784803 157.029433
L 395.500825 177.27174
L 395.18845 185.583289
L 394.847676 189.406785
L 394.492704 191.176255
L 394.180329 191.796319
L 393.967346 191.847681
L 393.78276 191.639761
L 393.562678 190.9964
L 393.321297 189.504186
L 393.087015 186.503523
L 392.866933 180.437257
L 392.668148 168.119908
L 392.455165 138.783992
L 392.277679 116.913997
L 392.235082 118.731074
L 392.093094 140.51035
L 391.780718 176.467499
L 391.496741 186.694741
L 391.177266 191.034388
L 390.822294 193.124812
L 390.417626 194.279218
L 389.949062 194.975959
L 389.366908 195.443868
L 388.571771 195.784995
L 387.350667 196.04629
L 385.235034 196.243948
L 380.97537 196.382684
L 369.964137 196.465003
L 334.9 196.490105
L 334.9 196.490105
" clip-path="url(#p20d20a56c7)" style="fill: none; stroke: #000000; stroke-width: 0.5; stroke-linecap: square"/>
   </g>
   <g id="patch_8">
    <path d="M 334.9 204.4
L 334.9 30.4
" style="fill: none; stroke: #000000; stroke-width: 0.8; stroke-linejoin: miter; stroke-linecap: square"/>
   </g>
   <g id="patch_9">
    <path d="M 562.075 204.4
L 562.075 30.4
" style="fill: none; stroke: #000000; stroke-width: 0.8; stroke-linejoin: miter; stroke-linecap: square"/>
   </g>
   <g id="patch_10">
    <path d="M 334.9 204.4
L 562.075 204.4
" style="fill: none; stroke: #000000; stroke-width: 0.8; stroke-linejoin: miter; stroke-linecap: square"/>
   </g>
   <g id="patch_11">
    <path d="M 334.9 30.4
L 562.075 30.4
" style="fill: none; stroke: #000000; stroke-width: 0.8; stroke-linejoin: miter; stroke-linecap: square"/>
   </g>
   <g id="text_26">
    <!-- $^{13}$C -->
    <g transform="translate(438.7075 24.4)scale(0.12 -0.12)">
     <use xlink:href="#DejaVuSans-31" transform="translate(0.957031 39.046875)scale(0.7)"/>
     <use xlink:href="#DejaVuSans-33" transform="translate(45.493164 39.046875)scale(0.7)"/>
     <use xlink:href="#DejaVuSans-43" transform="translate(92.763672 0.765625)"/>
    </g>
   </g>
  </g>
 </g>
 <defs>
  <clipPath id="p7fa504c732">
   <rect x="63.3" y="30.4" width="227.175" height="174"/>
  </clipPath>
  <clipPath id="p20d20a56c7">
   <rect x="334.9" y="30.4" width="227.175" height="174"/>
  </clipPath>
 </defs>
</svg>
